<?xml version="1.0" encoding="iso-8859-1"?>
<!-- Generator: Adobe Illustrator 19.0.0, SVG Export Plug-In . SVG Version: 6.00 Build 0)  -->
<svg xmlns="http://www.w3.org/2000/svg" xmlns:xlink="http://www.w3.org/1999/xlink" version="1.1" id="Capa_1" x="0px" y="0px" viewBox="0 0 512 512" style="enable-background:new 0 0 512 512;" xml:space="preserve" width="512px" height="512px">
<g>
	<g>
		<path d="M256,271c-33.084,0-60,26.916-60,60s26.916,60,60,60s60-26.916,60-60S289.084,271,256,271z M256,361    c-16.542,0-30-13.458-30-30s13.458-30,30-30s30,13.458,30,30S272.542,361,256,361z" fill="#FFFFFF"/>
	</g>
</g>
<g>
	<g>
		<path d="M406,271c-33.084,0-60,26.916-60,60s26.916,60,60,60s60-26.916,60-60S439.084,271,406,271z M406,361    c-16.542,0-30-13.458-30-30s13.458-30,30-30s30,13.458,30,30S422.542,361,406,361z" fill="#FFFFFF"/>
	</g>
</g>
<g>
	<g>
		<path d="M106,271c-33.084,0-60,26.916-60,60s26.916,60,60,60s60-26.916,60-60S139.084,271,106,271z M106,361    c-16.542,0-30-13.458-30-30s13.458-30,30-30s30,13.458,30,30S122.542,361,106,361z" fill="#FFFFFF"/>
	</g>
</g>
<g>
	<g>
		<path d="M406,391c-28.643,0-55.609,11.586-75.193,31.697C311.748,403.145,285.254,391,256,391    c-29.254,0-55.748,12.145-74.807,31.697C161.609,402.586,134.643,391,106,391C48.03,391,0,438.857,0,497c0,8.284,6.716,15,15,15    c2.611,0,471.876,0,482,0c8.284,0,15-6.716,15-15C512,439.043,464.157,391,406,391z M152.056,482h-120.5    c7.188-34.305,38.365-61,74.444-61c22.21,0,43.008,9.761,57.188,26.477C157.627,458.055,153.791,469.689,152.056,482z     M182.467,482c6.891-34.747,37.244-61,73.533-61s66.642,26.253,73.533,61C324.594,482,188.612,482,182.467,482z M359.943,482    c-1.735-12.31-5.572-23.945-11.132-34.523C362.992,430.761,383.79,421,406,421c36.079,0,67.256,26.695,74.443,61H359.943z" fill="#FFFFFF"/>
	</g>
</g>
<g>
	<g>
		<path d="M436,0C417.73,0,87.757,0,76,0c-8.284,0-15,6.716-15,15s6.716,15,15,15h15v196c0,8.284,6.716,15,15,15h300    c8.284,0,15-6.716,15-15V30h15c8.284,0,15-6.716,15-15S444.284,0,436,0z M391,211H121V30h270V211z" fill="#FFFFFF"/>
	</g>
</g>
<g>
	<g>
		<path d="M346,151h-15V75c0-8.284-6.716-15-15-15s-15,6.716-15,15v76h-30v-45c0-8.284-6.716-15-15-15s-15,6.716-15,15v45h-30v-15    c0-8.284-6.716-15-15-15s-15,6.716-15,15v15h-15c-8.284,0-15,6.716-15,15s6.716,15,15,15h180c8.284,0,15-6.716,15-15    S354.284,151,346,151z" fill="#FFFFFF"/>
	</g>
</g>
<g>
</g>
<g>
</g>
<g>
</g>
<g>
</g>
<g>
</g>
<g>
</g>
<g>
</g>
<g>
</g>
<g>
</g>
<g>
</g>
<g>
</g>
<g>
</g>
<g>
</g>
<g>
</g>
<g>
</g>
</svg>
