<?xml version="1.0" encoding="iso-8859-1"?>
<!-- Generator: Adobe Illustrator 19.0.0, SVG Export Plug-In . SVG Version: 6.00 Build 0)  -->
<svg xmlns="http://www.w3.org/2000/svg" xmlns:xlink="http://www.w3.org/1999/xlink" version="1.1" id="Capa_1" x="0px" y="0px" viewBox="0 0 511.999 511.999" style="enable-background:new 0 0 511.999 511.999;" xml:space="preserve" width="512px" height="512px">
<g>
	<g>
		<path d="M505.984,394.99l-119.991-89.994c-9.879-7.41-23.998-0.323-23.998,11.999v44.997H286    c-24.811,0-44.997-20.186-44.997-44.997c0-3.178,0-99.158,0-121.991c0-24.811,20.186-44.997,44.997-44.997h75.995v44.997    c0,12.35,14.141,19.394,23.998,11.999l119.991-89.993c7.999-6,7.984-18.01,0-23.998L385.993,3.018    c-9.877-7.41-23.998-0.323-23.998,11.999v44.997H286c-23.655,0-46.951,6.238-67.367,18.04c-15.034,8.69-28.28,20.248-38.96,33.883    c-21.196-13.856-46.502-21.924-73.66-21.924H45.018c-24.811,0-44.997,20.186-44.997,44.997s20.186,44.997,44.997,44.997h60.996    c24.811,0,44.997,20.186,44.997,44.997v61.996c0,24.811-20.186,44.997-44.997,44.997H45.018    c-24.811,0-44.997,20.186-44.997,44.997c0,24.811,20.186,44.997,44.997,44.997h60.996c26.22,0,51.839-7.704,73.653-21.925    c24.729,31.587,63.2,51.923,106.334,51.923h75.995v44.997c0,12.329,14.123,19.406,23.998,11.999l119.991-89.993    C513.984,412.988,513.969,400.978,505.984,394.99z M286,90.012h90.993c8.283,0,14.999-6.716,14.999-14.999V45.015l79.994,59.996    l-79.994,59.996v-29.998c0-8.283-6.716-14.999-14.999-14.999H286c-27.069,0-50.83,14.418-64.018,35.975    c-5.409-9.053-11.845-17.422-19.15-24.946C222.597,105.484,253.477,90.012,286,90.012z M106.013,391.99H45.018    c-8.27,0-14.999-6.729-14.999-14.999s6.729-14.999,14.999-14.999h60.996c18.178,0,34.862-6.505,47.858-17.304    c2.184,10.432,5.578,20.423,10.024,29.824C146.798,385.835,126.649,391.99,106.013,391.99z M391.993,466.985v-29.998    c0-8.283-6.716-14.999-14.999-14.999H286c-57.893,0-104.992-47.1-104.992-104.992c0-14.605,0-82.417,0-91.993    c0-41.352-33.643-74.995-74.995-74.995H45.018c-8.27,0-14.999-6.729-14.999-14.999c0-8.27,6.729-14.999,14.999-14.999h60.996    c57.893,0,104.992,47.1,104.992,104.992v91.993c0,41.352,33.643,74.995,74.995,74.995h90.993c8.283,0,14.999-6.716,14.999-14.999    v-29.998l79.994,59.996L391.993,466.985z" fill="#FFFFFF"/>
	</g>
</g>
<g>
</g>
<g>
</g>
<g>
</g>
<g>
</g>
<g>
</g>
<g>
</g>
<g>
</g>
<g>
</g>
<g>
</g>
<g>
</g>
<g>
</g>
<g>
</g>
<g>
</g>
<g>
</g>
<g>
</g>
</svg>
