<?xml version="1.0" encoding="iso-8859-1"?>
<!-- Generator: Adobe Illustrator 19.0.0, SVG Export Plug-In . SVG Version: 6.00 Build 0)  -->
<svg xmlns="http://www.w3.org/2000/svg" xmlns:xlink="http://www.w3.org/1999/xlink" version="1.1" id="Capa_1" x="0px" y="0px" viewBox="0 0 512 512" style="enable-background:new 0 0 512 512;" xml:space="preserve" width="512px" height="512px">
<g>
	<g>
		<path d="M451.584,130.927c0.271-3.3,0.416-6.614,0.416-9.927C452,54.493,397.196,0,331,0c-27.648,0-53.799,9.25-75,26.3    C234.799,9.25,208.648,0,181,0C114.767,0,60,54.534,60,121c0,3.313,0.144,6.627,0.415,9.927    C23.923,148.037,0.057,184.902,0,225.853v0.001c0,0.011,0,0.024,0,0.035c0,0.01,0,0.02,0,0.03c0,0.008,0,0.015,0,0.023    c0,0.018,0,0.039,0,0.058c0,57.897,47.551,105,106,105c15.632,0,31.02-3.542,45-10.164V392H87.42    c-6.192-17.459-22.865-30-42.42-30c-24.813,0-45,20.187-45,45s20.187,45,45,45c19.555,0,36.228-12.541,42.42-30H166    c8.284,0,15-6.716,15-15v-91c0-0.011-0.002-0.021-0.002-0.031C193.785,325.553,209.517,331,226,331c5.058,0,10.083-0.519,15-1.521    v95.101c-17.459,6.192-30,22.865-30,42.42c0,24.813,20.187,45,45,45s45-20.187,45-45c0-19.555-12.541-36.228-30-42.42v-95.101    c4.917,1.001,9.942,1.521,15,1.521c16.482,0,32.215-5.447,45.002-15.031c0,0.01-0.002,0.021-0.002,0.031v91    c0,8.284,6.716,15,15,15h78.58c6.192,17.459,22.865,30,42.42,30c24.813,0,45-20.187,45-45s-20.187-45-45-45    c-19.555,0-36.228,12.541-42.42,30H361v-71.205C374.741,327.346,390.031,331,406,331c58.448,0,106-47.103,106-105    c0-0.018,0-0.039,0-0.058c0-0.008,0-0.015,0-0.023c0-0.01,0-0.02,0-0.03c0-0.011,0-0.025,0-0.035v-0.001    C511.942,184.902,488.077,148.036,451.584,130.927z M45,422c-8.271,0-15-6.729-15-15s6.729-15,15-15s15,6.729,15,15    S53.271,422,45,422z M226,301c-13.023,0-25.263-5.671-33.718-15.221c11.305-16.31,16.67-35.124,16.668-40.599    c-0.002-6.902-4.797-13.112-11.818-14.638c-8.099-1.76-16.083,3.377-17.843,11.473C171.862,276.193,141.04,301,106,301    c-41.907,0-76-33.645-76-75c0-0.014,0-0.027,0-0.041c0-0.007,0-0.011,0-0.018c0-0.006,0-0.013,0-0.019    c0.05-46.302,43.417-83.986,93.431-72.955c2.792,9.521,7.931,18.248,15.143,25.459c5.858,5.858,15.355,5.858,21.213,0    c5.857-5.858,5.857-15.355,0-21.213c-8.467-8.467-8.357-17.693-8.727-19.395c-0.522-8.766,2.688-16.993,8.727-23.031    c5.858-5.858,5.858-15.355,0-21.213c-5.857-5.858-15.355-5.858-21.213,0c-8.027,8.027-13.485,17.933-15.994,28.721    c-10.951-1.68-21.9-1.698-32.552-0.105C90.023,121.793,90,121.397,90,121c0-49.327,41.673-91,91-91    c22.404,0,43.483,8.118,60,22.943V121h-30c-8.284,0-15,6.716-15,15s6.716,15,15,15h30v147.421C236.21,300.11,231.136,301,226,301z     M256,482c-8.271,0-15-6.729-15-15s6.729-15,15-15s15,6.729,15,15S264.271,482,256,482z M467,392c8.271,0,15,6.729,15,15    s-6.729,15-15,15s-15-6.729-15-15S458.729,392,467,392z M481.999,225.942c0,0.007,0,0.011,0,0.018c0,0.014,0,0.027,0,0.041    c0,41.355-34.094,75-76,75c-35.573,0-66.491-25.261-73.517-60.065c-1.639-8.12-9.55-13.375-17.671-11.735    c-7.121,1.437-12.038,7.699-12.035,14.694c0,4.259,4.185,23.549,16.946,41.879C311.268,295.327,299.025,301,286,301    c-5.136,0-10.209-0.89-15-2.579V151h30c8.284,0,15-6.716,15-15s-6.716-15-15-15h-30V52.943C287.518,38.118,308.596,30,331,30    c49.327,0,91,41.673,91,91c0,0.396-0.023,0.793-0.028,1.189c-10.651-1.593-21.601-1.575-32.552,0.106    c-2.51-10.789-7.967-20.694-15.995-28.721c-5.857-5.858-15.355-5.858-21.213,0c-5.858,5.858-5.858,15.355,0,21.213    c6.019,6.02,9.248,14.232,8.727,23.03c-0.372,1.712-0.27,10.939-8.727,19.397c-5.858,5.858-5.858,15.355,0,21.213    c5.856,5.857,15.355,5.859,21.213,0c7.212-7.211,12.351-15.938,15.143-25.459c49.959-11.02,93.381,26.601,93.431,72.955    C481.999,225.929,481.999,225.936,481.999,225.942z" fill="#FFFFFF"/>
	</g>
</g>
<g>
	<g>
		<path d="M406,181c-8.284,0-15,6.716-15,15s6.716,15,15,15c8.523,0,16,7.009,16,15c0,8.284,6.716,15,15,15s15-6.716,15-15    C452,201.128,430.904,181,406,181z" fill="#FFFFFF"/>
	</g>
</g>
<g>
	<g>
		<path d="M106,181c-24.867,0-46,20.096-46,45c0,8.284,6.716,15,15,15s15-6.716,15-15c0-7.991,7.477-15,16-15    c8.284,0,15-6.716,15-15S114.284,181,106,181z" fill="#FFFFFF"/>
	</g>
</g>
<g>
</g>
<g>
</g>
<g>
</g>
<g>
</g>
<g>
</g>
<g>
</g>
<g>
</g>
<g>
</g>
<g>
</g>
<g>
</g>
<g>
</g>
<g>
</g>
<g>
</g>
<g>
</g>
<g>
</g>
</svg>
