<?xml version="1.0" encoding="iso-8859-1"?>
<!-- Generator: Adobe Illustrator 19.0.0, SVG Export Plug-In . SVG Version: 6.00 Build 0)  -->
<svg xmlns="http://www.w3.org/2000/svg" xmlns:xlink="http://www.w3.org/1999/xlink" version="1.1" id="Capa_1" x="0px" y="0px" viewBox="0 0 512 512" style="enable-background:new 0 0 512 512;" xml:space="preserve" width="512px" height="512px">
<g>
	<g>
		<path d="M105,0C71.916,0,45,26.916,45,60c0,33.02,26.676,61,60,61c33.358,0,60-28.006,60-61C165,26.916,138.084,0,105,0z M105,91    c-16.262,0-30-14.196-30-31c0-16.542,13.458-30,30-30s30,13.458,30,30C135,76.804,121.262,91,105,91z" fill="#FFFFFF"/>
	</g>
</g>
<g>
	<g>
		<path d="M105,121C47.103,121,0,168.103,0,226v30c0,8.284,6.716,15,15,15h180c8.284,0,15-6.716,15-15v-30    C210,168.103,162.897,121,105,121z M180,241H30v-15c0-41.355,33.645-75,75-75s75,33.645,75,75V241z" fill="#FFFFFF"/>
	</g>
</g>
<g>
	<g>
		<path d="M487.57,242.073l-75-30c-3.576-1.431-7.565-1.431-11.142,0l-75,30c-12.543,5.017-12.541,22.838,0,27.854l24.471,9.788    C348.336,286.48,347,293.69,347,301c0,33.02,26.676,61,60,61c33.358,0,60-28.006,60-61c0-7.342-1.329-14.536-3.892-21.288    l24.462-9.785C500.113,264.91,500.111,247.089,487.57,242.073z M407,332c-16.262,0-30-14.196-30-31    c0-3.479,0.606-6.907,1.764-10.139l22.665,9.066c3.575,1.43,7.565,1.431,11.142,0l22.659-9.063    c1.157,3.226,1.77,6.644,1.77,10.136C437,317.804,423.262,332,407,332z M407,269.845L372.389,256L407,242.155L441.611,256    L407,269.845z" fill="#FFFFFF"/>
	</g>
</g>
<g>
	<g>
		<path d="M407,362c-58.006,0-105,47.218-105,105v30c0,8.284,6.716,15,15,15h180c8.284,0,15-6.716,15-15v-30    C512,409.222,465.009,362,407,362z M392,482h-60v-15c0-19.074,7.169-36.498,18.939-49.747L392,472V482z M374.918,399.224    C384.651,394.598,395.526,392,407,392s22.349,2.598,32.082,7.224L407,442L374.918,399.224z M482,482h-60v-10l41.061-54.747    C474.831,430.502,482,447.926,482,467V482z" fill="#FFFFFF"/>
	</g>
</g>
<g>
	<g>
		<path d="M241,452H135c-8.271,0-15-6.729-15-15v-83.931l4.221,4.362c5.761,5.954,15.258,6.108,21.21,0.348    c5.953-5.761,6.109-15.257,0.348-21.21l-30-31c-5.948-6.123-15.669-6.061-21.558,0l-30,31c-5.761,5.953-5.605,15.449,0.348,21.21    c5.953,5.762,15.449,5.605,21.21-0.348L90,353.069V437c0,24.813,20.187,45,45,45h106c8.284,0,15-6.716,15-15S249.284,452,241,452z    " fill="#FFFFFF"/>
	</g>
</g>
<g>
	<g>
		<path d="M447.605,125.393c-5.857-5.858-15.355-5.858-21.213,0L422,129.787V75c0-24.813-20.187-45-45-45H241    c-8.284,0-15,6.716-15,15s6.716,15,15,15h136c8.271,0,15,6.729,15,15v54.787l-4.394-4.394c-5.857-5.858-15.355-5.858-21.213,0    c-5.858,5.858-5.858,15.355,0,21.213l29.997,29.998c5.825,5.825,15.352,5.866,21.218,0l29.997-29.998    C453.463,140.748,453.463,131.251,447.605,125.393z" fill="#FFFFFF"/>
	</g>
</g>
<g>
</g>
<g>
</g>
<g>
</g>
<g>
</g>
<g>
</g>
<g>
</g>
<g>
</g>
<g>
</g>
<g>
</g>
<g>
</g>
<g>
</g>
<g>
</g>
<g>
</g>
<g>
</g>
<g>
</g>
</svg>
